<?xml version="1.0" encoding="UTF-8"?>
<svg version="1.1" xmlns="http://www.w3.org/2000/svg" width="983" height="299">
<path d="M0 0 C1.97119141 -0.34057617 1.97119141 -0.34057617 4.3515625 -0.29296875 C5.62773438 -0.2784668 5.62773438 -0.2784668 6.9296875 -0.26367188 C7.81914063 -0.23853516 8.70859375 -0.21339844 9.625 -0.1875 C10.97078125 -0.16719727 10.97078125 -0.16719727 12.34375 -0.14648438 C14.56309789 -0.11106925 16.78125188 -0.06168461 19 0 C21.03218796 4.51823838 22.60891889 8.8274278 23.8046875 13.65234375 C24.04505737 14.60741066 24.04505737 14.60741066 24.2902832 15.58177185 C24.63931506 16.96912165 24.98597389 18.35707018 25.33050537 19.74554443 C26.28948856 23.60609407 27.26887915 27.46143186 28.25 31.31640625 C28.46228241 32.15091309 28.67456482 32.98541992 28.89328003 33.84521484 C32.29066552 47.12676271 35.9479655 60.34056112 39.56982422 73.56225586 C42.24078293 83.33653634 44.86707325 93.09122071 47 103 C47.67111816 102.9808252 48.34223633 102.96165039 49.03369141 102.94189453 C53.8359375 102.8046875 53.8359375 102.8046875 56 103 C58 105 58 105 58.23046875 107.34765625 C58.21628906 108.24355469 58.20210937 109.13945312 58.1875 110.0625 C58.18105469 110.96097656 58.17460938 111.85945313 58.16796875 112.78515625 C58 115 58 115 57 116 C54.47905924 116.08847743 51.98569107 116.11527301 49.46484375 116.09765625 C48.33496788 116.09553383 48.33496788 116.09553383 47.18226624 116.09336853 C44.7673044 116.08775376 42.35243399 116.07519883 39.9375 116.0625 C38.30403779 116.0574869 36.67057414 116.05292366 35.03710938 116.04882812 C31.02470415 116.03777954 27.01236759 116.02050506 23 116 C23 112.04 23 108.08 23 104 C26.465 103.505 26.465 103.505 30 103 C29.18997399 99.39527269 28.37655503 95.79131939 27.5625 92.1875 C27.33240234 91.16333984 27.10230469 90.13917969 26.86523438 89.08398438 C26.53168945 87.60961914 26.53168945 87.60961914 26.19140625 86.10546875 C25.88505249 84.74651489 25.88505249 84.74651489 25.57250977 83.36010742 C25.00374961 80.87179614 25.00374961 80.87179614 24 78 C13.77 78 3.54 78 -7 78 C-8.2065625 82.269375 -8.2065625 82.269375 -9.4375 86.625 C-9.81539673 87.95265381 -9.81539673 87.95265381 -10.20092773 89.30712891 C-11.38120924 93.52086191 -12.38864494 97.65727095 -13 102 C-10.36 102.66 -7.72 103.32 -5 104 C-4.80598367 105.81181405 -4.61995625 107.62448532 -4.4375 109.4375 C-4.28087891 110.95150391 -4.28087891 110.95150391 -4.12109375 112.49609375 C-4.06115234 113.73552734 -4.06115234 113.73552734 -4 115 C-5 116 -5 116 -8.23461914 116.11352539 C-9.66814126 116.11336631 -11.10166912 116.10767407 -12.53515625 116.09765625 C-13.66503212 116.09553383 -13.66503212 116.09553383 -14.81773376 116.09336853 C-17.2326956 116.08775376 -19.64756601 116.07519883 -22.0625 116.0625 C-23.69596221 116.0574869 -25.32942586 116.05292366 -26.96289062 116.04882812 C-30.97529585 116.03777954 -34.98763241 116.02050506 -39 116 C-39 112.04 -39 108.08 -39 104 C-33.555 103.505 -33.555 103.505 -28 103 C-27.76925781 101.91017822 -27.53851562 100.82035645 -27.30078125 99.69750977 C-24.92577749 88.65286045 -22.10504788 77.79694695 -19 66.9375 C-16.28091179 57.40526528 -13.67920123 47.88193939 -11.45803833 38.22029114 C-9.78361545 30.968309 -7.85687608 23.79893928 -5.875 16.625 C-5.52460052 15.33076681 -5.17433995 14.036496 -4.82421875 12.7421875 C-4.48777344 11.52015625 -4.15132812 10.298125 -3.8046875 9.0390625 C-3.50546387 7.94803223 -3.20624023 6.85700195 -2.89794922 5.73291016 C-2 3 -2 3 0 0 Z M8 14 C6.76772173 18.70846998 5.54122395 23.4183983 4.31958008 28.12963867 C3.90506891 29.72508238 3.48910365 31.32014917 3.0715332 32.91479492 C-1.0484881 48.33194812 -1.0484881 48.33194812 -4 64 C-2.96207228 65.26181095 -2.96207228 65.26181095 -0.68334961 65.11352539 C0.81699829 65.10567017 0.81699829 65.10567017 2.34765625 65.09765625 C3.42724609 65.09443359 4.50683594 65.09121094 5.61914062 65.08789062 C6.75544922 65.07951172 7.89175781 65.07113281 9.0625 65.0625 C10.77276367 65.05573242 10.77276367 65.05573242 12.51757812 65.04882812 C15.34510351 65.03699747 18.1725264 65.0205141 21 65 C20.31383014 57.61681234 18.52461118 50.60993405 16.6875 43.4375 C16.37353271 42.19709961 16.05956543 40.95669922 15.73608398 39.67871094 C13.55799588 31.10112035 11.33716076 22.53571758 9 14 C8.67 14 8.34 14 8 14 Z " fill="#FEFEFE" transform="translate(834,59)"/>
<path d="M0 0 C1.07674484 -0.00095673 2.15348969 -0.00191345 3.26286316 -0.00289917 C5.52965351 -0.00357776 7.79644584 -0.00174591 10.06323242 0.00244141 C13.54805806 0.00782036 17.03275634 0.00247216 20.51757812 -0.00390625 C22.72005237 -0.00324592 24.92252653 -0.00196571 27.125 0 C28.17283157 -0.00202423 29.22066315 -0.00404846 30.30024719 -0.00613403 C31.26182236 -0.00298187 32.22339752 0.00017029 33.21411133 0.00341797 C34.06427322 0.00421356 34.91443512 0.00500916 35.7903595 0.00582886 C37.73046875 0.1328125 37.73046875 0.1328125 38.73046875 1.1328125 C38.83050164 3.26634424 38.86127923 5.40318792 38.86328125 7.5390625 C38.86457031 8.83972656 38.86585938 10.14039062 38.8671875 11.48046875 C38.86509277 12.16125488 38.86299805 12.84204102 38.86083984 13.54345703 C38.85549115 15.62409765 38.86078555 17.70452239 38.8671875 19.78515625 C38.86589844 21.08582031 38.86460937 22.38648438 38.86328125 23.7265625 C38.86215332 24.92990234 38.86102539 26.13324219 38.85986328 27.37304688 C38.73046875 30.1328125 38.73046875 30.1328125 37.73046875 31.1328125 C33.72826222 31.27636367 29.73605192 31.17497653 25.73046875 31.1328125 C25.73046875 25.1928125 25.73046875 19.2528125 25.73046875 13.1328125 C20.78166501 13.20671328 15.83470372 13.28944251 10.88671875 13.39526367 C9.2028959 13.42855685 7.51896027 13.45657506 5.83496094 13.47924805 C3.41682789 13.51271455 0.99973251 13.56502286 -1.41796875 13.62109375 C-2.55085831 13.63067863 -2.55085831 13.63067863 -3.70663452 13.64045715 C-6.05599026 13.67261568 -6.05599026 13.67261568 -9.26953125 14.1328125 C-11.75784339 17.86528072 -11.54429018 20.74241169 -11.51245117 25.06079102 C-11.51434952 25.86756287 -11.51624786 26.67433472 -11.51820374 27.5055542 C-11.52191085 30.17437432 -11.51120891 32.84292279 -11.5 35.51171875 C-11.49880813 37.36351998 -11.49835505 39.21532182 -11.49861145 41.06712341 C-11.49704674 44.94835188 -11.48875741 48.82948809 -11.4753418 52.71069336 C-11.45834016 57.69329338 -11.45452781 62.67579208 -11.45528698 67.6584177 C-11.45501547 71.48187737 -11.44953761 75.30531475 -11.44228554 79.12876701 C-11.43909685 80.96643848 -11.437131 82.80411249 -11.43639183 84.64178658 C-11.43423106 87.20597795 -11.42549286 89.77006042 -11.41479492 92.33422852 C-11.41524811 93.09843613 -11.41570129 93.86264374 -11.41616821 94.65000916 C-11.4645132 98.51897843 -11.4645132 98.51897843 -10.26953125 102.1328125 C-2.85681256 103.59150343 4.70626965 103.24501503 12.23046875 103.1953125 C13.52984375 103.19080078 14.82921875 103.18628906 16.16796875 103.18164062 C19.35548876 103.1699218 22.54298488 103.15198854 25.73046875 103.1328125 C25.73046875 97.1928125 25.73046875 91.2528125 25.73046875 85.1328125 C30.02046875 85.1328125 34.31046875 85.1328125 38.73046875 85.1328125 C38.73046875 95.3628125 38.73046875 105.5928125 38.73046875 116.1328125 C30.98884283 116.20168364 23.24827999 116.26142004 15.5065918 116.29760742 C12.87309161 116.31269307 10.23961654 116.33316416 7.60620117 116.35913086 C3.82073771 116.39552269 0.03560648 116.4125414 -3.75 116.42578125 C-4.92725143 116.44126511 -6.10450287 116.45674896 -7.31742859 116.47270203 C-8.41819229 116.47292862 -9.51895599 116.47315521 -10.65307617 116.47338867 C-12.10202522 116.48338142 -12.10202522 116.48338142 -13.58024597 116.49357605 C-17.82032111 115.92477639 -20.43935651 113.93926796 -23.45703125 111.0078125 C-28.96635539 102.26888455 -27.5617752 90.80226839 -27.53515625 80.8515625 C-27.5365058 79.06994575 -27.53844874 77.28832936 -27.54095459 75.50671387 C-27.54389222 71.78487621 -27.53965219 68.06313498 -27.53027344 64.34130859 C-27.51887975 59.59044466 -27.52544653 54.83980677 -27.53741837 50.08895111 C-27.54467383 46.41361819 -27.54233216 42.73833813 -27.53716278 39.06300354 C-27.53583647 37.31205722 -27.53743798 35.56110597 -27.54212189 33.81016541 C-27.58483226 13.36043802 -27.58483226 13.36043802 -23.26953125 5.1328125 C-22.60953125 5.1328125 -21.94953125 5.1328125 -21.26953125 5.1328125 C-21.26953125 4.4728125 -21.26953125 3.8128125 -21.26953125 3.1328125 C-14.7317285 -0.63899678 -7.3076493 -0.01425481 0 0 Z " fill="#FEFEFE" transform="translate(747.26953125,58.8671875)"/>
<path d="M0 0 C0.98484375 -0.00128906 1.9696875 -0.00257812 2.984375 -0.00390625 C4.02078125 -0.00003906 5.0571875 0.00382812 6.125 0.0078125 C7.67960937 0.00201172 7.67960937 0.00201172 9.265625 -0.00390625 C10.25046875 -0.00261719 11.2353125 -0.00132813 12.25 0 C13.16007812 0.00112793 14.07015625 0.00225586 15.0078125 0.00341797 C17.125 0.1328125 17.125 0.1328125 18.125 1.1328125 C18.21361992 3.9444463 18.24022355 6.73139505 18.22265625 9.54296875 C18.2212413 10.38500351 18.21982635 11.22703827 18.21836853 12.09458923 C18.21275263 14.79486585 18.20019748 17.49506078 18.1875 20.1953125 C18.18248705 22.02148318 18.17792379 23.84765516 18.17382812 25.67382812 C18.16277804 30.16018792 18.14550279 34.64648634 18.125 39.1328125 C19.19028931 39.11710205 19.19028931 39.11710205 20.27709961 39.10107422 C23.53886279 39.05913764 26.80056896 39.03336764 30.0625 39.0078125 C31.17947266 38.99105469 32.29644531 38.97429687 33.44726562 38.95703125 C49.33244681 38.86386303 49.33244681 38.86386303 55.125 43.5703125 C57.97771529 47.22535397 58.25687621 49.92922582 58.33032227 54.43041992 C58.3602401 56.05176094 58.3602401 56.05176094 58.39076233 57.70585632 C58.40747482 58.87155655 58.42418732 60.03725677 58.44140625 61.23828125 C58.46218735 62.43262283 58.48296844 63.62696442 58.50437927 64.85749817 C58.56984276 68.67837693 58.6287451 72.49932526 58.6875 76.3203125 C58.73068824 78.90821036 58.77430263 81.49610115 58.81835938 84.08398438 C58.92552092 90.43351989 59.0272934 96.78312484 59.125 103.1328125 C60.259375 103.2771875 61.39375 103.4215625 62.5625 103.5703125 C66.125 104.1328125 66.125 104.1328125 67.125 105.1328125 C67.125 108.7628125 67.125 112.3928125 67.125 116.1328125 C56.895 116.1328125 46.665 116.1328125 36.125 116.1328125 C36.125 105.1328125 36.125 105.1328125 37.125 104.1328125 C39.45317964 103.76520519 41.7868385 103.43039669 44.125 103.1328125 C44.15032254 96.49423027 44.16785528 89.85566047 44.17993164 83.21704102 C44.18496526 80.9579217 44.19179262 78.69880564 44.20043945 76.43969727 C44.21254745 73.19546707 44.21823799 69.95127989 44.22265625 66.70703125 C44.22781754 65.69444748 44.23297882 64.68186371 44.23829651 63.63859558 C44.23837204 62.69784683 44.23844757 61.75709808 44.23852539 60.7878418 C44.240746 59.95955368 44.24296661 59.13126556 44.24525452 58.27787781 C44.20873196 55.94628964 44.20873196 55.94628964 43.125 53.1328125 C34.875 52.8028125 26.625 52.4728125 18.125 52.1328125 C18.455 68.9628125 18.785 85.7928125 19.125 103.1328125 C21.765 103.4628125 24.405 103.7928125 27.125 104.1328125 C27.125 108.0928125 27.125 112.0528125 27.125 116.1328125 C16.895 116.1328125 6.665 116.1328125 -3.875 116.1328125 C-5.29666892 111.86780574 -4.45497373 108.57927776 -3.875 104.1328125 C-0.905 104.1328125 2.065 104.1328125 5.125 104.1328125 C5.125 74.1028125 5.125 44.0728125 5.125 13.1328125 C1.825 13.1328125 -1.475 13.1328125 -4.875 13.1328125 C-5.875 12.1328125 -5.875 12.1328125 -6.0078125 9.6640625 C-6.00523437 8.66375 -6.00265625 7.6634375 -6 6.6328125 C-6.00257813 5.6325 -6.00515625 4.6321875 -6.0078125 3.6015625 C-5.77381423 -0.74805235 -3.87191234 0.00479876 0 0 Z " fill="#FEFEFE" transform="translate(360.875,58.8671875)"/>
<path d="M0 0 C0.87454834 0.00523682 1.74909668 0.01047363 2.65014648 0.01586914 C3.59438477 0.0190918 4.53862305 0.02231445 5.51147461 0.02563477 C6.50469727 0.03401367 7.49791992 0.04239258 8.52124023 0.05102539 C9.51833008 0.05553711 10.51541992 0.06004883 11.54272461 0.06469727 C14.01478872 0.07652532 16.48673541 0.0930069 18.95874023 0.11352539 C19.87360439 2.85811787 20.08253666 4.44777206 20.07899475 7.27067566 C20.08036942 8.11621506 20.08174408 8.96175446 20.0831604 9.83291626 C20.07776749 11.2193483 20.07776749 11.2193483 20.07226562 12.63378906 C20.07241165 13.6095842 20.07255768 14.58537933 20.07270813 15.59074402 C20.07201061 18.82101655 20.06422568 22.05123166 20.05639648 25.28149414 C20.05453173 27.51923084 20.0531081 29.75696795 20.05210876 31.9947052 C20.04828808 37.88838831 20.03846159 43.78204683 20.02740479 49.67572021 C20.01718105 55.68818835 20.01260908 61.70066045 20.00756836 67.71313477 C19.99683895 79.51327579 19.97976787 91.31339854 19.95874023 103.11352539 C22.59874023 103.44352539 25.23874023 103.77352539 27.95874023 104.11352539 C27.95874023 108.07352539 27.95874023 112.03352539 27.95874023 116.11352539 C20.37819556 116.18775489 12.7978631 116.24216607 5.21704102 116.27832031 C2.63887852 116.29339444 0.06074161 116.31385706 -2.51733398 116.33984375 C-6.22589438 116.37628625 -9.9341153 116.39326591 -13.64282227 116.40649414 C-14.79303864 116.421978 -15.943255 116.43746185 -17.12832642 116.45341492 C-27.83988804 116.4556609 -27.83988804 116.4556609 -32.04125977 113.11352539 C-35.99193094 106.95446609 -35.49245431 100.33429839 -35.47485352 93.20727539 C-35.48009537 91.96860718 -35.48533722 90.72993896 -35.49073792 89.45373535 C-35.49878071 86.17496062 -35.49171961 82.89660746 -35.48040771 79.61785889 C-35.47876103 77.61506047 -35.49075271 75.61282854 -35.5078125 73.61010742 C-35.5385298 69.74639475 -35.54189286 65.88359078 -35.53735352 62.01977539 C-35.54858749 60.83105835 -35.55982147 59.64234131 -35.57139587 58.41760254 C-35.51560279 51.76795388 -35.06709609 47.49707064 -31.04125977 42.11352539 C-24.92225679 37.30573734 -13.3546009 38.9969977 -6.04125977 39.05102539 C-2.08125977 39.07165039 1.87874023 39.09227539 5.95874023 39.11352539 C5.95874023 30.53352539 5.95874023 21.95352539 5.95874023 13.11352539 C3.31874023 13.11352539 0.67874023 13.11352539 -2.04125977 13.11352539 C-3.04125977 12.11352539 -3.04125977 12.11352539 -3.17407227 9.64477539 C-3.17149414 8.64446289 -3.16891602 7.64415039 -3.16625977 6.61352539 C-3.16883789 5.61321289 -3.17141602 4.61290039 -3.17407227 3.58227539 C-2.9903018 0.1663067 -2.9903018 0.1663067 0 0 Z M-22.04125977 54.11352539 C-22.35375339 56.2405217 -22.35375339 56.2405217 -22.31591797 58.71508789 C-22.32544998 59.66947754 -22.33498199 60.62386719 -22.34480286 61.60717773 C-22.34389145 62.64052246 -22.34298004 63.67386719 -22.34204102 64.73852539 C-22.34632614 65.7963623 -22.35061127 66.85419922 -22.35502625 67.9440918 C-22.36077632 70.18350508 -22.36126484 72.42293704 -22.35693359 74.66235352 C-22.35377264 78.09952443 -22.37722846 81.53583594 -22.40258789 84.97290039 C-22.4048606 87.1447743 -22.40556451 89.31665053 -22.40454102 91.48852539 C-22.41375076 92.52187012 -22.42296051 93.55521484 -22.43244934 94.61987305 C-22.42622055 95.5742627 -22.41999176 96.52865234 -22.41357422 97.51196289 C-22.41420364 98.3542041 -22.41483307 99.19644531 -22.41548157 100.06420898 C-22.29198837 100.7404834 -22.16849518 101.41675781 -22.04125977 102.11352539 C-18.6593746 104.3681155 -17.49227147 104.36053519 -13.53344727 104.34399414 C-12.46481445 104.34206055 -11.39618164 104.34012695 -10.29516602 104.33813477 C-9.18012695 104.32588867 -8.06508789 104.31364258 -6.91625977 104.30102539 C-5.79348633 104.30038086 -4.67071289 104.29973633 -3.51391602 104.29907227 C1.57864967 104.75929476 1.57864967 104.75929476 5.95874023 103.11352539 C6.05207729 101.51741558 6.07619396 99.91719111 6.07226562 98.31835938 C6.07215233 96.78688515 6.07215233 96.78688515 6.07203674 95.22447205 C6.06687546 94.11407059 6.06171417 93.00366913 6.05639648 91.85961914 C6.05498154 90.7290358 6.05356659 89.59845245 6.05210876 88.43360901 C6.04649042 84.80605474 6.03393481 81.17856115 6.02124023 77.55102539 C6.0162276 75.09855232 6.01166428 72.64607829 6.00756836 70.19360352 C5.99651504 64.16688994 5.97975907 58.140212 5.95874023 52.11352539 C1.66712976 52.05568697 -2.62438121 52.01998419 -6.91625977 51.98852539 C-8.13958008 51.97176758 -9.36290039 51.95500977 -10.62329102 51.93774414 C-11.78989258 51.93129883 -12.95649414 51.92485352 -14.15844727 51.91821289 C-15.23723145 51.90773926 -16.31601562 51.89726563 -17.42749023 51.88647461 C-20.20169999 51.84512563 -20.20169999 51.84512563 -22.04125977 54.11352539 Z " fill="#FEFEFE" transform="translate(580.041259765625,58.886474609375)"/>
<path d="M0 0 C0.89167877 -0.00945648 1.78335754 -0.01891296 2.70205688 -0.02865601 C4.14577164 -0.01954697 4.14577164 -0.01954697 5.61865234 -0.01025391 C6.61408051 -0.01312408 7.60950867 -0.01599426 8.63510132 -0.01895142 C10.74502123 -0.02099437 12.85495999 -0.0154484 14.96484375 -0.00292969 C18.17150156 0.01301903 21.37687935 -0.00271814 24.58349609 -0.02197266 C26.63688427 -0.01998828 28.69027165 -0.0161406 30.74365234 -0.01025391 C32.16914902 -0.01936295 32.16914902 -0.01936295 33.6234436 -0.02865601 C40.06916843 0.03828275 47.12933532 0.46587615 52.2567749 4.80873108 C56.89492162 10.34671849 55.83806605 18.70788811 55.77490234 25.44677734 C55.77207245 26.59106705 55.76924255 27.73535675 55.7663269 28.9143219 C55.75517562 32.55155102 55.73007998 36.1885295 55.70458984 39.82568359 C55.69455353 42.29898732 55.68542882 44.77229492 55.67724609 47.24560547 C55.65525281 53.29321632 55.62182548 59.34068204 55.57958984 65.38818359 C58.54958984 65.38818359 61.51958984 65.38818359 64.57958984 65.38818359 C64.57958984 69.34818359 64.57958984 73.30818359 64.57958984 77.38818359 C54.34958984 77.38818359 44.11958984 77.38818359 33.57958984 77.38818359 C32.42092261 72.75351467 32.8794799 70.0555832 33.57958984 65.38818359 C36.21958984 65.38818359 38.85958984 65.38818359 41.57958984 65.38818359 C41.57958984 48.55818359 41.57958984 31.72818359 41.57958984 14.38818359 C28.70958984 13.89318359 28.70958984 13.89318359 15.57958984 13.38818359 C15.90958984 30.21818359 16.23958984 47.04818359 16.57958984 64.38818359 C20.04458984 64.88318359 20.04458984 64.88318359 23.57958984 65.38818359 C26.4178209 68.22641465 24.57958984 73.37431873 24.57958984 77.38818359 C14.01958984 77.38818359 3.45958984 77.38818359 -7.42041016 77.38818359 C-7.42041016 66.38818359 -7.42041016 66.38818359 -6.42041016 65.38818359 C-3.78041016 65.38818359 -1.14041016 65.38818359 1.57958984 65.38818359 C1.57958984 48.22818359 1.57958984 31.06818359 1.57958984 13.38818359 C-1.06041016 13.38818359 -3.70041016 13.38818359 -6.42041016 13.38818359 C-7.99963422 11.80895953 -7.62806916 10.19374485 -7.67041016 8.01318359 C-7.69619141 7.22169922 -7.72197266 6.43021484 -7.74853516 5.61474609 C-7.07543946 1.04731104 -4.26990669 0.01300947 0 0 Z " fill="#FEFEFE" transform="translate(287.42041015625,97.61181640625)"/>
<path d="M0 0 C0.79921875 -0.01224609 1.5984375 -0.02449219 2.421875 -0.03710938 C9.54428965 -0.05439679 18.00664025 0.37176307 23.625 5.1875 C27.79206191 11.88117041 28.22547466 17.34288916 28.234375 25.125 C28.25091125 26.24567871 28.26744751 27.36635742 28.28448486 28.52099609 C28.33280621 32.07655404 28.35430147 35.63168473 28.375 39.1875 C28.4031728 41.60809423 28.43310205 44.02866869 28.46484375 46.44921875 C28.53856102 52.36190201 28.5902964 58.2744659 28.625 64.1875 C29.759375 64.331875 30.89375 64.47625 32.0625 64.625 C35.625 65.1875 35.625 65.1875 36.625 66.1875 C36.72323937 67.85179051 36.75473631 69.52031931 36.75 71.1875 C36.75386719 72.54875 36.75386719 72.54875 36.7578125 73.9375 C36.625 76.1875 36.625 76.1875 35.625 77.1875 C34.03057056 77.29651879 32.43135848 77.33655489 30.83325195 77.34863281 C29.81161453 77.35824036 28.78997711 77.3678479 27.73738098 77.37774658 C26.62392807 77.38199646 25.51047516 77.38624634 24.36328125 77.390625 C22.65545723 77.39917511 22.65545723 77.39917511 20.91313171 77.40789795 C18.49621515 77.41736734 16.07928557 77.42388958 13.66235352 77.42773438 C9.97063445 77.43741313 6.27947822 77.46840789 2.58789062 77.5 C0.24219081 77.50653239 -2.10351299 77.51178193 -4.44921875 77.515625 C-5.55255051 77.5279718 -6.65588226 77.5403186 -7.79264832 77.55303955 C-17.82798476 77.52400824 -17.82798476 77.52400824 -22.375 74.1875 C-25.33920314 70.50434656 -25.75874372 67.62877623 -25.7734375 62.96875 C-25.77730469 61.78925781 -25.78117187 60.60976562 -25.78515625 59.39453125 C-25.77355469 58.17121094 -25.76195312 56.94789063 -25.75 55.6875 C-25.76160156 54.46417969 -25.77320313 53.24085938 -25.78515625 51.98046875 C-25.78128906 50.80097656 -25.77742188 49.62148437 -25.7734375 48.40625 C-25.77005371 47.33310547 -25.76666992 46.25996094 -25.76318359 45.15429688 C-25.32192939 41.78189366 -24.37419215 39.91547056 -22.375 37.1875 C-17.32134836 33.55923729 -13.20191913 33.06095793 -7.078125 33.08984375 C-5.87285156 33.09306641 -4.66757812 33.09628906 -3.42578125 33.09960938 C-2.17152344 33.10798828 -0.91726563 33.11636719 0.375 33.125 C2.27958984 33.13176758 2.27958984 33.13176758 4.22265625 33.13867188 C7.35679095 33.15045434 10.49090142 33.16838964 13.625 33.1875 C13.295 26.9175 12.965 20.6475 12.625 14.1875 C5.365 14.1875 -1.895 14.1875 -9.375 14.1875 C-10.59193876 16.62137753 -10.69459896 18.60588846 -10.9375 21.3125 C-11.081875 22.92125 -11.22625 24.53 -11.375 26.1875 C-15.665 26.1875 -19.955 26.1875 -24.375 26.1875 C-24.5108035 23.47746573 -24.60944624 20.77431059 -24.6875 18.0625 C-24.72939453 17.30195312 -24.77128906 16.54140625 -24.81445312 15.7578125 C-24.90310501 11.64436519 -24.68665432 9.01905192 -22.04296875 5.7578125 C-15.59491773 -0.45421908 -8.46533698 0.00676145 0 0 Z M-11.375 46.1875 C-13.12184718 50.24318617 -13.56723535 52.9447542 -13.1875 57.375 C-13.11144531 58.42042969 -13.03539062 59.46585938 -12.95703125 60.54296875 C-12.62134203 63.52404103 -12.62134203 63.52404103 -9.375 65.1875 C-6.85676099 65.4632294 -6.85676099 65.4632294 -4.05078125 65.3828125 C-3.02275391 65.37636719 -1.99472656 65.36992187 -0.93554688 65.36328125 C0.13630859 65.34652344 1.20816406 65.32976562 2.3125 65.3125 C3.93768555 65.29896484 3.93768555 65.29896484 5.59570312 65.28515625 C8.2723571 65.2615734 10.94856797 65.22866126 13.625 65.1875 C13.8188211 62.20861874 14.00535102 59.22959754 14.1875 56.25 C14.24357422 55.39986328 14.29964844 54.54972656 14.35742188 53.67382812 C14.40576172 52.86494141 14.45410156 52.05605469 14.50390625 51.22265625 C14.57460327 50.09935913 14.57460327 50.09935913 14.64672852 48.95336914 C14.8302254 47.15994101 14.8302254 47.15994101 13.625 46.1875 C11.77130389 46.10012355 9.91432459 46.08051847 8.05859375 46.08984375 C6.93388672 46.09306641 5.80917969 46.09628906 4.65039062 46.09960938 C3.46638672 46.10798828 2.28238281 46.11636719 1.0625 46.125 C-0.12537109 46.12951172 -1.31324219 46.13402344 -2.53710938 46.13867188 C-5.48312226 46.15050325 -8.42903681 46.16698713 -11.375 46.1875 Z " fill="#FEFEFE" transform="translate(462.375,97.8125)"/>
<path d="M0 0 C1.0374939 0.00303635 1.0374939 0.00303635 2.09594727 0.00613403 C2.80243408 0.00517731 3.5089209 0.00422058 4.23681641 0.00323486 C5.7331552 0.00255321 7.22949694 0.00440649 8.72583008 0.00857544 C11.02374884 0.01392396 13.32147213 0.00863003 15.61938477 0.00222778 C17.06990603 0.00288857 18.52042718 0.00416974 19.97094727 0.00613403 C20.66260986 0.0041098 21.35427246 0.00208557 22.06689453 0 C26.91849503 0.0239943 26.91849503 0.0239943 28.03344727 1.13894653 C28.13195897 2.97010536 28.16317356 4.80514587 28.15844727 6.63894653 C28.16231445 8.13941528 28.16231445 8.13941528 28.16625977 9.67019653 C28.03344727 12.13894653 28.03344727 12.13894653 27.03344727 13.13894653 C24.06344727 13.13894653 21.09344727 13.13894653 18.03344727 13.13894653 C18.03344727 42.83894653 18.03344727 72.53894653 18.03344727 103.13894653 C27.93344727 103.13894653 37.83344727 103.13894653 48.03344727 103.13894653 C47.62647677 98.33646357 47.62647677 98.33646357 47.19506836 93.53616333 C46.9071553 89.73784739 46.85974163 88.39950499 49.03344727 85.13894653 C51.56469727 84.77566528 51.56469727 84.77566528 54.53344727 84.82644653 C56.00297852 84.83224731 56.00297852 84.83224731 57.50219727 84.83816528 C60.03344727 85.13894653 60.03344727 85.13894653 62.03344727 87.13894653 C62.27636719 89.92044067 62.27636719 89.92044067 62.26391602 93.42410278 C62.26198242 94.676427 62.26004883 95.92875122 62.25805664 97.21902466 C62.24581055 98.53322388 62.23356445 99.8474231 62.22094727 101.20144653 C62.21998047 103.17854614 62.21998047 103.17854614 62.21899414 105.19558716 C62.17353849 114.99885531 62.17353849 114.99885531 61.03344727 116.13894653 C58.94725704 116.23312426 56.8578425 116.25637531 54.76953125 116.25247192 C53.78907837 116.25269096 53.78907837 116.25269096 52.78881836 116.25291443 C50.61902598 116.25221536 48.44931847 116.24442331 46.27954102 116.23660278 C44.77881416 116.23473858 43.27808669 116.23331469 41.77735901 116.23231506 C37.820265 116.22849006 33.86320748 116.21865993 29.90612793 116.20761108 C25.87109877 116.19739659 21.83606374 116.19281736 17.80102539 116.18777466 C9.87848257 116.17703764 1.95596945 116.15996143 -5.96655273 116.13894653 C-5.96655273 112.17894653 -5.96655273 108.21894653 -5.96655273 104.13894653 C-2.75204004 102.53169019 0.46957262 103.08146468 4.03344727 103.13894653 C3.96257684 102.58631166 3.89170641 102.03367678 3.81868839 101.46429539 C3.18357043 96.20675327 2.89333548 91.06594809 2.91992188 85.77346802 C2.91977585 84.99186813 2.91962982 84.21026825 2.91947937 83.40498352 C2.92016843 80.85663951 2.92791299 78.30837131 2.93579102 75.76004028 C2.93765878 73.97928406 2.93908099 72.19852731 2.94007874 70.41777039 C2.94387569 65.75716708 2.95368155 61.09659551 2.96478271 56.43600464 C2.97505783 51.66967193 2.97958937 46.90333403 2.98461914 42.13699341 C2.99530664 32.80429726 3.01234874 23.47162455 3.03344727 14.13894653 C0.06344727 13.80894653 -2.90655273 13.47894653 -5.96655273 13.13894653 C-5.99341826 11.15985256 -6.01288649 9.18065682 -6.02905273 7.20144653 C-6.0406543 6.0992981 -6.05225586 4.99714966 -6.06420898 3.86160278 C-5.89844544 -0.75988487 -4.15396042 0.02054401 0 0 Z " fill="#FEFEFE" transform="translate(69.966552734375,58.861053466796875)"/>
<path d="M0 0 C1.13759766 -0.020625 2.27519531 -0.04125 3.44726562 -0.0625 C11.34401864 -0.09895356 18.36218603 0.17311702 24.703125 5.2734375 C26.93347798 9.74588215 26.86805879 13.93509576 26.9375 18.875 C26.96569824 19.91736816 26.99389648 20.95973633 27.02294922 22.03369141 C27.10421352 25.43922101 27.15053696 28.84371332 27.1875 32.25 C27.20264648 33.43916016 27.21779297 34.62832031 27.23339844 35.85351562 C27.27299305 39.44407108 27.29759861 43.03426067 27.3125 46.625 C27.31733398 47.73439941 27.32216797 48.84379883 27.32714844 49.98681641 C27.28559191 69.58665403 27.28559191 69.58665403 23.1875 74.25 C18.45855332 77.16603563 14.37580576 77.7052362 8.9375 77.68359375 C8.16116211 77.6888356 7.38482422 77.69407745 6.58496094 77.69947815 C4.95118399 77.70587292 3.31736084 77.70459445 1.68359375 77.69604492 C-0.80552586 77.68752387 -3.29235599 77.71634591 -5.78125 77.74804688 C-7.37499932 77.74965897 -8.96875267 77.7490812 -10.5625 77.74609375 C-11.30016602 77.75732773 -12.03783203 77.76856171 -12.79785156 77.78013611 C-17.95287754 77.7111432 -20.97796479 76.70367448 -24.8125 73.25 C-28.64021119 67.10838738 -28.24834319 60.81803345 -28.2109375 53.74609375 C-28.21380768 52.54944595 -28.21667786 51.35279816 -28.21963501 50.11988831 C-28.22167098 47.59758021 -28.21617394 45.07525616 -28.20361328 42.55297852 C-28.18753989 38.69706899 -28.20348623 34.84220541 -28.22265625 30.98632812 C-28.22067401 28.53124769 -28.21683074 26.07616791 -28.2109375 23.62109375 C-28.21701019 22.47096298 -28.22308289 21.32083221 -28.2293396 20.135849 C-28.14070215 10.03066068 -28.14070215 10.03066068 -24.8125 5.25 C-17.45972483 -0.79561514 -9.06513744 0.04067364 0 0 Z M-13.8125 15.25 C-14.12499362 17.3769963 -14.12499362 17.3769963 -14.0871582 19.8515625 C-14.09669022 20.80595215 -14.10622223 21.7603418 -14.11604309 22.74365234 C-14.11513168 23.77699707 -14.11422028 24.8103418 -14.11328125 25.875 C-14.11756638 26.93283691 -14.1218515 27.99067383 -14.12626648 29.08056641 C-14.13201656 31.31997969 -14.13250508 33.55941165 -14.12817383 35.79882812 C-14.12501288 39.23599903 -14.1484687 42.67231055 -14.17382812 46.109375 C-14.17610084 48.28124891 -14.17680474 50.45312514 -14.17578125 52.625 C-14.184991 53.65834473 -14.19420074 54.69168945 -14.20368958 55.75634766 C-14.19746078 56.7107373 -14.19123199 57.66512695 -14.18481445 58.6484375 C-14.18544388 59.49067871 -14.1860733 60.33291992 -14.1867218 61.20068359 C-14.06322861 61.87695801 -13.93973541 62.55323242 -13.8125 63.25 C-10.60435112 65.38876592 -9.7247927 65.50576428 -6.03125 65.515625 C-5.10699219 65.51820313 -4.18273437 65.52078125 -3.23046875 65.5234375 C-1.78607422 65.51183594 -1.78607422 65.51183594 -0.3125 65.5 C0.65042969 65.50773437 1.61335938 65.51546875 2.60546875 65.5234375 C3.52972656 65.52085937 4.45398438 65.51828125 5.40625 65.515625 C6.6737207 65.51224121 6.6737207 65.51224121 7.96679688 65.50878906 C10.47434578 65.38713548 10.47434578 65.38713548 13.1875 63.25 C13.63839452 61.12942935 13.63839452 61.12942935 13.55981445 58.6484375 C13.56604324 57.69404785 13.57227203 56.7396582 13.57868958 55.75634766 C13.56947983 54.72300293 13.56027008 53.6896582 13.55078125 52.625 C13.55127975 51.56716309 13.55177826 50.50932617 13.55229187 49.41943359 C13.54994845 47.17999394 13.54020429 44.9405518 13.52368164 42.70117188 C13.50009665 39.26408453 13.50311785 35.82777262 13.50976562 32.390625 C13.50418895 30.21874535 13.49707914 28.04686899 13.48828125 25.875 C13.48919266 24.84165527 13.49010406 23.80831055 13.49104309 22.74365234 C13.47674507 21.31206787 13.47674507 21.31206787 13.4621582 19.8515625 C13.45524712 18.58820068 13.45524712 18.58820068 13.44819641 17.29931641 C13.37147198 15.0258247 13.37147198 15.0258247 11.1875 13.25 C8.79573522 12.93918663 8.79573522 12.93918663 6.03125 12.984375 C5.00902344 12.98179688 3.98679688 12.97921875 2.93359375 12.9765625 C1.32677734 12.98816406 1.32677734 12.98816406 -0.3125 13 C-1.38371094 12.99226563 -2.45492187 12.98453125 -3.55859375 12.9765625 C-5.09193359 12.98042969 -5.09193359 12.98042969 -6.65625 12.984375 C-8.06680664 12.98775879 -8.06680664 12.98775879 -9.50585938 12.99121094 C-12.00741967 13.02901284 -12.00741967 13.02901284 -13.8125 15.25 Z " fill="#FEFEFE" transform="translate(170.8125,97.75)"/>
<path d="M0 0 C1.58167969 -0.00580078 1.58167969 -0.00580078 3.1953125 -0.01171875 C18.88293993 0.00793993 18.88293993 0.00793993 25 6.125 C27.06545746 9.38136964 27.2614925 11.98666762 27.29052734 15.80810547 C27.30328705 16.94964081 27.31604675 18.09117615 27.32919312 19.26730347 C27.33141876 20.4965152 27.33364441 21.72572693 27.3359375 22.9921875 C27.3425943 24.25966827 27.3492511 25.52714905 27.35610962 26.83303833 C27.36623669 29.51464886 27.37179174 32.19585397 27.37060547 34.87744141 C27.3704024 38.30286261 27.39769594 41.72745304 27.43214989 45.15267754 C27.4598215 48.43248263 27.45856956 51.71228155 27.4609375 54.9921875 C27.47530853 56.21735077 27.48967957 57.44251404 27.50448608 58.70480347 C27.44652561 69.5168517 27.44652561 69.5168517 23 74.125 C18.91165763 77.50098981 14.95201457 77.56516618 9.84765625 77.5234375 C9.06990341 77.52630768 8.29215057 77.52917786 7.49082947 77.53213501 C5.85105661 77.53417025 4.21125918 77.52867823 2.5715332 77.51611328 C0.07382358 77.50007272 -2.42226274 77.51596809 -4.91992188 77.53515625 C-6.51823271 77.5331733 -8.11654254 77.52932854 -9.71484375 77.5234375 C-10.45564682 77.52951019 -11.19644989 77.53558289 -11.95970154 77.5418396 C-16.71009693 77.47804399 -20.11011247 76.91177448 -24 74.125 C-27.95067117 67.9659407 -27.45119454 61.34577299 -27.43359375 54.21875 C-27.4388356 52.98008179 -27.44407745 51.74141357 -27.44947815 50.46520996 C-27.45752094 47.18643523 -27.45045985 43.90808207 -27.43914795 40.6293335 C-27.43750126 38.62653508 -27.44949295 36.62430315 -27.46655273 34.62158203 C-27.49727004 30.75786936 -27.5006331 26.89506539 -27.49609375 23.03125 C-27.50732773 21.84253296 -27.51856171 20.65381592 -27.53013611 19.42907715 C-27.47435875 12.7813021 -27.03030793 8.5044144 -23 3.125 C-17.09117013 -1.35756059 -6.98972545 -0.02563469 0 0 Z M-12 13.125 C-14.11082348 16.29123522 -14.24932538 17.04030847 -14.24291992 20.65649414 C-14.24599655 21.57076675 -14.24907318 22.48503937 -14.25224304 23.42701721 C-14.24505753 24.41145309 -14.23787201 25.39588898 -14.23046875 26.41015625 C-14.23001053 27.42218613 -14.22955231 28.434216 -14.2290802 29.47691345 C-14.2260589 31.61621269 -14.21817624 33.75550975 -14.20581055 35.89477539 C-14.18755296 39.17797596 -14.18530088 42.46089459 -14.18554688 45.74414062 C-14.1806317 47.82031495 -14.17480339 49.89648736 -14.16796875 51.97265625 C-14.16685593 52.95911636 -14.1657431 53.94557648 -14.16459656 54.96192932 C-14.15821671 55.87304977 -14.15183685 56.78417023 -14.14526367 57.72290039 C-14.14145187 58.52659561 -14.13764008 59.33029083 -14.13371277 60.15834045 C-14.12164463 62.20297047 -14.12164463 62.20297047 -13 64.125 C-8.54390069 65.61036644 -4.16889156 65.43124792 0.5 65.5 C1.46292969 65.53738281 2.42585937 65.57476562 3.41796875 65.61328125 C4.34222656 65.62488281 5.26648438 65.63648438 6.21875 65.6484375 C7.06373047 65.66825684 7.90871094 65.68807617 8.77929688 65.70849609 C11.16537372 65.29581521 11.16537372 65.29581521 12.77612305 63.18603516 C14.47371294 58.94019792 14.41086566 55.15730486 14.36328125 50.625 C14.36377975 49.71169922 14.36427826 48.79839844 14.36479187 47.85742188 C14.36245664 45.93096739 14.35276065 44.00450956 14.33618164 42.078125 C14.3125813 39.13513811 14.31562604 36.19305757 14.32226562 33.25 C14.31668859 31.37499462 14.30957855 29.49999304 14.30078125 27.625 C14.30169266 26.74779297 14.30260406 25.87058594 14.30354309 24.96679688 C14.25280756 20.57904449 14.05458625 17.1165923 12 13.125 C8.04180389 13.03821697 4.08385066 12.98468267 0.125 12.9375 C-1.00292969 12.91236328 -2.13085938 12.88722656 -3.29296875 12.86132812 C-4.90751953 12.84682617 -4.90751953 12.84682617 -6.5546875 12.83203125 C-7.54968262 12.8163208 -8.54467773 12.80061035 -9.56982422 12.78442383 C-10.77276123 12.95300903 -10.77276123 12.95300903 -12 13.125 Z " fill="#FEFEFE" transform="translate(644,97.875)"/>
<path d="M0 0 C0.84498047 -0.00128906 1.68996094 -0.00257812 2.56054688 -0.00390625 C3.44935547 -0.00003906 4.33816406 0.00382812 5.25390625 0.0078125 C6.13884766 0.00394531 7.02378906 0.00007813 7.93554688 -0.00390625 C8.78181641 -0.00261719 9.62808594 -0.00132813 10.5 0 C11.27915771 0.00112793 12.05831543 0.00225586 12.86108398 0.00341797 C14.81640625 0.1328125 14.81640625 0.1328125 16.81640625 1.1328125 C16.88600341 13.3810718 16.93926697 25.62928383 16.97184277 37.87770081 C16.98747974 43.56551106 17.00868225 49.25318573 17.04272461 54.94091797 C17.07538797 60.43279346 17.09327407 65.92453876 17.10103798 71.41650391 C17.10656894 73.5088099 17.11736955 75.601109 17.13359642 77.69335938 C17.15546322 80.63036338 17.15836928 83.56683357 17.15698242 86.50390625 C17.16776825 87.3634642 17.17855408 88.22302216 17.18966675 89.10862732 C17.16084987 94.77098552 16.22298582 98.98047145 13.81640625 104.1328125 C7.45008211 109.53034819 0.84070718 109.61569079 -7.18359375 109.1328125 C-7.84359375 108.8028125 -8.50359375 108.4728125 -9.18359375 108.1328125 C-9.21046654 106.32039198 -9.2299309 104.50786017 -9.24609375 102.6953125 C-9.25769531 101.68597656 -9.26929688 100.67664063 -9.28125 99.63671875 C-9.18359375 97.1328125 -9.18359375 97.1328125 -8.18359375 96.1328125 C-5.86542286 95.81183499 -3.54580018 95.62060294 -1.21484375 95.4140625 C0.80821218 95.34215413 0.80821218 95.34215413 1.81640625 94.1328125 C1.94140777 91.6083218 2.00244163 89.10981633 2.02172852 86.58374023 C2.03657791 85.39846237 2.03657791 85.39846237 2.05172729 84.1892395 C2.08343473 81.56499272 2.10813604 78.94072781 2.1328125 76.31640625 C2.15337406 74.50179053 2.17437031 72.6871797 2.19578552 70.87257385 C2.25108866 66.0869643 2.30046145 61.30131094 2.34863281 56.515625 C2.39878782 51.63602786 2.45450513 46.75649465 2.50976562 41.87695312 C2.61744793 32.29562748 2.71887038 22.71424642 2.81640625 13.1328125 C0.17640625 13.1328125 -2.46359375 13.1328125 -5.18359375 13.1328125 C-5.21045928 11.15371852 -5.2299275 9.17452279 -5.24609375 7.1953125 C-5.25769531 6.09316406 -5.26929688 4.99101563 -5.28125 3.85546875 C-5.12717265 -0.44020769 -3.87891185 0.00562336 0 0 Z " fill="#FEFEFE" transform="translate(212.18359375,97.8671875)"/>
<path d="M0 0 C0.88042969 -0.01224609 1.76085937 -0.02449219 2.66796875 -0.03710938 C3.50972656 -0.03904297 4.35148437 -0.04097656 5.21875 -0.04296875 C5.99154297 -0.04707764 6.76433594 -0.05118652 7.56054688 -0.05541992 C9.5 0.1875 9.5 0.1875 11.5 2.1875 C11.74050903 4.81973267 11.74050903 4.81973267 11.72705078 8.19775391 C11.72689972 9.45891022 11.72674866 10.72006653 11.72659302 12.0194397 C11.71637898 13.40098222 11.70594697 14.78252315 11.6953125 16.1640625 C11.69158288 17.57367757 11.68873567 18.98329523 11.68673706 20.39291382 C11.67909655 24.10509382 11.65944461 27.81711761 11.6373291 31.52923584 C11.61687959 35.31634406 11.60773727 39.1034775 11.59765625 42.890625 C11.576199 50.32298793 11.54205816 57.75522208 11.5 65.1875 C12.21027344 65.17589844 12.92054688 65.16429687 13.65234375 65.15234375 C14.57144531 65.14332031 15.49054688 65.13429688 16.4375 65.125 C17.35402344 65.11339844 18.27054687 65.10179687 19.21484375 65.08984375 C21.5 65.1875 21.5 65.1875 22.5 66.1875 C22.59823937 67.85179051 22.62973631 69.52031931 22.625 71.1875 C22.62886719 72.54875 22.62886719 72.54875 22.6328125 73.9375 C22.5 76.1875 22.5 76.1875 21.5 77.1875 C19.05169574 77.27593793 16.63179401 77.30278752 14.18359375 77.28515625 C13.45253922 77.2837413 12.72148468 77.28232635 11.96827698 77.28086853 C9.62464368 77.27525408 7.28110461 77.26269922 4.9375 77.25 C3.35221492 77.24498686 1.76692834 77.24042363 0.18164062 77.23632812 C-3.7122761 77.22527997 -7.60612205 77.20800572 -11.5 77.1875 C-11.52687279 75.37507948 -11.54633715 73.56254767 -11.5625 71.75 C-11.57410156 70.74066406 -11.58570313 69.73132813 -11.59765625 68.69140625 C-11.5 66.1875 -11.5 66.1875 -10.5 65.1875 C-7.86 65.1875 -5.22 65.1875 -2.5 65.1875 C-2.5 48.0275 -2.5 30.8675 -2.5 13.1875 C-5.14 13.1875 -7.78 13.1875 -10.5 13.1875 C-11.5 12.1875 -11.5 12.1875 -11.59765625 9.68359375 C-11.58605469 8.67425781 -11.57445312 7.66492188 -11.5625 6.625 C-11.55347656 5.61308594 -11.54445312 4.60117188 -11.53515625 3.55859375 C-11.52355469 2.77613281 -11.51195312 1.99367188 -11.5 1.1875 C-7.9639604 -0.5805198 -3.89428745 0.00285087 0 0 Z " fill="#FDFDFD" transform="translate(254.5,97.8125)"/>
<path d="M0 0 C2.67916598 2.0967386 4.40092726 3.87673861 6 6.875 C6 10.37387837 4.5873766 12.93863084 3 16 C-0.7373856 18.4915904 -2.57331583 18.45793285 -7 18 C-9.875 16.4375 -9.875 16.4375 -12 14 C-13.14888518 10.05070721 -13.43129396 7.97041141 -11.75 4.1875 C-8.25986481 -0.17516899 -5.39027785 -0.65055077 0 0 Z " fill="#FEFEFE" transform="translate(261,76)"/>
<path d="M0 0 C2.91963173 1.98783437 4.61102978 3.4314697 5.48046875 6.9375 C5.75815509 10.90015906 5.23092162 12.66411401 2.9375 16 C-0.76272533 18.51930235 -2.6031656 18.7066341 -7 18 C-9.95473023 16.45840162 -11.52908229 15.31912036 -12.66796875 12.12890625 C-13.41605771 8.21069776 -13.33289313 6.53951646 -11.1875 3.0625 C-7.5291086 -0.38684047 -4.99330376 -0.5077936 0 0 Z " fill="#FEFEFE" transform="translate(225,76)"/>
</svg>
