<svg width="661" height="45" viewBox="0 0 661 45" fill="none" xmlns="http://www.w3.org/2000/svg">
<g filter="url(#filter0_d_39_10)">
<path d="M21.3719 27.12H24.6359V36H9.89994C7.21194 36 5.57994 34.944 5.00394 32.832C4.81194 32.224 4.71594 31.568 4.71594 30.864V5.184C4.71594 2.848 5.53194 1.28 7.16394 0.48C7.77194 0.159998 8.52394 -2.86102e-06 9.41994 -2.86102e-06H24.6359V8.88H21.3719V3.264H8.65194V32.736H21.3719V27.12ZM29.4547 16.704C29.4547 13.536 31.1027 11.952 34.3987 11.952H42.5107C44.0787 11.952 45.2147 12.256 45.9187 12.864C46.6227 13.472 46.9747 14.592 46.9747 16.224V20.688L33.2947 29.328V32.736H43.1827V29.952H46.9747V32.496C46.9747 33.456 46.6707 34.288 46.0627 34.992C45.4867 35.664 44.5107 36 43.1347 36H33.2947C31.9187 36 30.9267 35.664 30.3187 34.992C29.7427 34.288 29.4547 33.456 29.4547 32.496V16.704ZM33.2947 25.44L43.1347 19.248V15.264H33.2947V25.44ZM67.8952 11.52C70.3912 11.52 71.6392 12.752 71.6392 15.216V32.736H74.7112V36H65.4472V32.736H67.7512V14.88L58.1992 20.88V32.736H60.5512V36H51.2872V32.736H54.3112V15.216H51.2872V12H58.1992V16.992L66.1672 12C66.6792 11.68 67.2552 11.52 67.8952 11.52ZM85.8644 3.264V12H89.7524V15.456H85.8644V32.736H90.4244V36H86.3924C84.9524 36 83.8804 35.632 83.1764 34.896C82.4724 34.128 82.1204 32.832 82.1204 31.008V15.456H78.5684V12H82.1204V3.264H85.8644ZM108.347 12C110.843 12 112.091 13.232 112.091 15.696V19.968H108.203V15.312L100.715 20.064V32.736H103.067V36H93.8028V32.736H96.8268V15.216H93.8028V11.952H100.715V16.176L106.619 12.48C107.131 12.16 107.707 12 108.347 12ZM120.392 36C118.76 36 117.608 35.632 116.936 34.896C116.264 34.128 115.928 33.072 115.928 31.728V16.272C115.928 14.992 116.216 13.968 116.792 13.2C117.4 12.4 118.6 12 120.392 12H129.272C131.032 12 132.216 12.4 132.824 13.2C133.432 13.968 133.736 14.992 133.736 16.272V31.728C133.736 33.072 133.4 34.128 132.728 34.896C132.056 35.632 130.904 36 129.272 36H120.392ZM119.816 32.736H129.848V15.264H119.816V32.736ZM172.077 20.16L167.805 3.264L163.533 20.16H172.077ZM182.013 32.736V36H172.653V32.736H175.245L172.845 23.184H162.765L160.365 32.736H163.005V36H153.645V32.736H156.669L165.021 -2.86102e-06H170.685L178.893 32.736H182.013ZM201.723 36H189.771C187.467 36 186.139 35.136 185.787 33.408C185.659 32.896 185.595 32.352 185.595 31.776V16.224C185.595 14.88 185.963 13.84 186.699 13.104C187.467 12.336 188.619 11.952 190.155 11.952H201.723V18.048H198.459V15.264H189.435V32.736H198.459V29.952H201.723V36ZM225.377 32.736V36H208.673C207.041 36 205.937 35.68 205.361 35.04C204.849 34.464 204.593 33.376 204.593 31.776V30C204.593 28.848 204.737 28.064 205.025 27.648C205.441 27.04 206.385 26.288 207.857 25.392L218.417 18.816V15.264H209.009V18.048H205.937V12H217.937C219.569 12 220.705 12.352 221.345 13.056C222.017 13.76 222.353 14.784 222.353 16.128V32.736H225.377ZM218.417 22.656L208.433 28.896V32.736H218.417V22.656ZM250.681 32.688V36H243.721V30.48L235.417 35.712C234.425 36.224 233.481 36.48 232.585 36.48C231.721 36.48 231.017 36.16 230.473 35.52C229.961 34.88 229.705 34.144 229.705 33.312V16.512C229.705 15.04 229.929 14.032 230.377 13.488C231.145 12.496 232.361 12 234.025 12H243.721V3.264H240.553V-2.86102e-06H247.657V32.688H250.681ZM243.721 15.264H233.545V32.976L243.721 26.64V15.264ZM255.017 16.704C255.017 13.536 256.665 11.952 259.961 11.952H268.073C269.641 11.952 270.777 12.256 271.481 12.864C272.185 13.472 272.537 14.592 272.537 16.224V20.688L258.857 29.328V32.736H268.745V29.952H272.537V32.496C272.537 33.456 272.233 34.288 271.625 34.992C271.049 35.664 270.073 36 268.697 36H258.857C257.481 36 256.489 35.664 255.881 34.992C255.305 34.288 255.017 33.456 255.017 32.496V16.704ZM258.857 25.44L268.697 19.248V15.264H258.857V25.44ZM270.617 9.168H267.113L263.801 5.328L260.441 9.168H256.889L262.265 3.264H265.481L270.617 9.168ZM305.41 11.52C307.906 11.52 309.154 12.752 309.154 15.216V32.736H312.226V36H302.962V32.736H305.266V14.88L296.482 20.352V32.736H298.834V36H290.242V32.736H292.546L292.594 32.544V14.832L283.762 20.352V32.736H286.114V36H276.85V32.736H279.874V15.216H276.85V12H283.762V16.56L291.01 12C291.522 11.68 292.098 11.52 292.738 11.52C295.234 11.52 296.482 12.752 296.482 15.216V16.512L303.682 12C304.194 11.68 304.77 11.52 305.41 11.52ZM323.524 32.736H326.644V36H316.564V32.736H319.588V15.264H316.564V12H323.524V32.736ZM321.556 3.168C322.228 3.168 322.788 3.424 323.236 3.936C323.716 4.416 323.956 5.008 323.956 5.712C323.956 6.384 323.716 6.96 323.236 7.44C322.788 7.888 322.212 8.112 321.508 8.112C320.836 8.112 320.26 7.888 319.78 7.44C319.332 6.96 319.108 6.384 319.108 5.712C319.108 5.008 319.348 4.416 319.828 3.936C320.308 3.424 320.884 3.168 321.556 3.168ZM347.083 36H335.131C332.827 36 331.499 35.136 331.147 33.408C331.019 32.896 330.955 32.352 330.955 31.776V16.224C330.955 14.88 331.323 13.84 332.059 13.104C332.827 12.336 333.979 11.952 335.515 11.952H347.083V18.048H343.819V15.264H334.795V32.736H343.819V29.952H347.083V36ZM355.376 36C353.744 36 352.592 35.632 351.92 34.896C351.248 34.128 350.912 33.072 350.912 31.728V16.272C350.912 14.992 351.2 13.968 351.776 13.2C352.384 12.4 353.584 12 355.376 12H364.256C366.016 12 367.2 12.4 367.808 13.2C368.416 13.968 368.72 14.992 368.72 16.272V31.728C368.72 33.072 368.384 34.128 367.712 34.896C367.04 35.632 365.888 36 364.256 36H355.376ZM354.8 32.736H364.832V15.264H354.8V32.736ZM407.062 20.16L402.79 3.264L398.518 20.16H407.062ZM416.998 32.736V36H407.638V32.736H410.23L407.83 23.184H397.75L395.35 32.736H397.99V36H388.63V32.736H391.654L400.006 -2.86102e-06H405.67L413.878 32.736H416.998ZM441.556 32.688V36H434.596V30.48L426.292 35.712C425.3 36.224 424.356 36.48 423.46 36.48C422.596 36.48 421.892 36.16 421.348 35.52C420.836 34.88 420.58 34.144 420.58 33.312V16.512C420.58 15.04 420.804 14.032 421.252 13.488C422.02 12.496 423.236 12 424.9 12H434.596V3.264H431.428V-2.86102e-06H438.532V32.688H441.556ZM434.596 15.264H424.42V32.976L434.596 26.64V15.264ZM465.236 32.736V36H448.532C446.9 36 445.796 35.68 445.22 35.04C444.708 34.464 444.452 33.376 444.452 31.776V30C444.452 28.848 444.596 28.064 444.884 27.648C445.3 27.04 446.244 26.288 447.716 25.392L458.276 18.816V15.264H448.868V18.048H445.796V12H457.796C459.428 12 460.564 12.352 461.204 13.056C461.876 13.76 462.212 14.784 462.212 16.128V32.736H465.236ZM458.276 22.656L448.292 28.896V32.736H458.276V22.656ZM487.065 32.736H490.089V3.264H487.065V-2.86102e-06H497.145V3.264H494.025V32.736H504.105V27.12H507.369V36H487.065V32.736ZM515.689 36C514.057 36 512.905 35.632 512.233 34.896C511.561 34.128 511.225 33.072 511.225 31.728V16.272C511.225 14.992 511.513 13.968 512.089 13.2C512.697 12.4 513.897 12 515.689 12H524.569C526.329 12 527.513 12.4 528.121 13.2C528.729 13.968 529.033 14.992 529.033 16.272V31.728C529.033 33.072 528.697 34.128 528.025 34.896C527.353 35.632 526.201 36 524.569 36H515.689ZM515.113 32.736H525.145V15.264H515.113V32.736ZM540.753 12V15.264H538.401L543.201 32.736L548.097 15.264H545.745V12H554.625V15.264H551.745L545.937 36H540.609L534.753 15.264H531.921V12H540.753ZM557.97 16.704C557.97 13.536 559.618 11.952 562.914 11.952H571.026C572.594 11.952 573.73 12.256 574.434 12.864C575.138 13.472 575.49 14.592 575.49 16.224V20.688L561.81 29.328V32.736H571.698V29.952H575.49V32.496C575.49 33.456 575.186 34.288 574.578 34.992C574.002 35.664 573.026 36 571.65 36H561.81C560.434 36 559.442 35.664 558.834 34.992C558.258 34.288 557.97 33.456 557.97 32.496V16.704ZM561.81 25.44L571.65 19.248V15.264H561.81V25.44ZM587.243 32.736H590.363V36H580.283V32.736H583.307V3.264H580.283V-2.86102e-06H587.243V32.736ZM614.486 32.736V36H597.782C596.15 36 595.046 35.68 594.47 35.04C593.958 34.464 593.702 33.376 593.702 31.776V30C593.702 28.848 593.846 28.064 594.134 27.648C594.55 27.04 595.494 26.288 596.966 25.392L607.526 18.816V15.264H598.118V18.048H595.046V12H607.046C608.678 12 609.814 12.352 610.454 13.056C611.126 13.76 611.462 14.784 611.462 16.128V32.736H614.486ZM607.526 22.656L597.542 28.896V32.736H607.526V22.656ZM634.942 36H622.99C620.686 36 619.358 35.136 619.006 33.408C618.878 32.896 618.814 32.352 618.814 31.776V16.224C618.814 14.88 619.182 13.84 619.918 13.104C620.686 12.336 621.838 11.952 623.374 11.952H634.942V18.048H631.678V15.264H622.654V32.736H631.678V29.952H634.942V36ZM639.252 16.704C639.252 13.536 640.9 11.952 644.196 11.952H652.308C653.876 11.952 655.012 12.256 655.716 12.864C656.42 13.472 656.772 14.592 656.772 16.224V20.688L643.092 29.328V32.736H652.98V29.952H656.772V32.496C656.772 33.456 656.468 34.288 655.86 34.992C655.284 35.664 654.308 36 652.932 36H643.092C641.716 36 640.724 35.664 640.116 34.992C639.54 34.288 639.252 33.456 639.252 32.496V16.704ZM643.092 25.44L652.932 19.248V15.264H643.092V25.44Z" fill="black"/>
</g>
<defs>
<filter id="filter0_d_39_10" x="0.715942" y="-3.8147e-06" width="660.056" height="44.48" filterUnits="userSpaceOnUse" color-interpolation-filters="sRGB">
<feFlood flood-opacity="0" result="BackgroundImageFix"/>
<feColorMatrix in="SourceAlpha" type="matrix" values="0 0 0 0 0 0 0 0 0 0 0 0 0 0 0 0 0 0 127 0" result="hardAlpha"/>
<feOffset dy="4"/>
<feGaussianBlur stdDeviation="2"/>
<feComposite in2="hardAlpha" operator="out"/>
<feColorMatrix type="matrix" values="0 0 0 0 0 0 0 0 0 0 0 0 0 0 0 0 0 0 0.25 0"/>
<feBlend mode="plus-darker" in2="BackgroundImageFix" result="effect1_dropShadow_39_10"/>
<feBlend mode="normal" in="SourceGraphic" in2="effect1_dropShadow_39_10" result="shape"/>
</filter>
</defs>
</svg>
